<svg width="201" height="102" viewBox="0 0 201 102" xmlns="http://www.w3.org/2000/svg" aria-labelledby="logo"><title id="logo">Formidable Logo</title><g fill="none" fill-rule="evenodd"><path d="M115.694 22.384l5.81-10.162c.186-.324.186-.717 0-1.041L115.395.509V.486c-.024-.023-.047-.046-.047-.092l-.023-.024c-.023-.023-.046-.07-.07-.092-.023-.023-.069-.047-.092-.07l-.023-.023c-.023-.023-.046-.046-.07-.046 0 0-.023 0-.023-.023-.07-.047-.139-.07-.231-.093h-.023c-.023 0-.07-.023-.093-.023H79.954h-.023c-.024 0-.07 0-.093.023h-.023c-.07.023-.162.046-.232.093 0 0-.023 0-.023.023-.023.023-.046.023-.07.046l-.022.023c-.024.023-.07.047-.093.07-.023.023-.046.07-.07.092l-.023.024c-.023.023-.046.046-.046.092V.51l-6.111 10.672c-.185.324-.185.717 0 1.041l5.972 10.44v34.375c0 .023 0 .07.023.093v.023c.024.07.047.162.093.231 0 0 0 .023.023.023.023.024.023.047.046.07l.024.023c.023.023.046.07.069.093.023.023.07.046.093.069l.023.023c.023.023.046.046.092.046h.023l10.672 6.112c.162.092.347.138.509.138.185 0 .347-.046.51-.138l10.67-6.112h.024c.023-.023.046-.046.092-.046l.023-.023c.024-.023.07-.046.093-.07.023-.023.046-.069.07-.092l.023-.023c.023-.023.046-.046.046-.07 0 0 0-.023.023-.023.046-.07.07-.139.093-.231v-.023c0-.024.023-.07.023-.093v-.023-12.246h12.245c.023 0 .07 0 .093-.023h.023c.07-.023.162-.046.231-.092 0 0 .024 0 .024-.023.023-.024.046-.024.069-.047l.023-.023c.023-.023.07-.046.093-.07.023-.022.046-.046.07-.092l.022-.023c.024-.023.047-.046.047-.093v-.023l6.11-10.671c.186-.324.186-.718 0-1.042l-5.833-10.162zm-7.916 9.63h-17.06c-.255-.023-.51.07-.718.231l-.023.024-.046.046c-.186.185-.301.44-.301.74v17.13l-8.611 4.93V23.404h31.666l-4.907 8.61zm-7.454 23.102l-8.611-4.93v-14.63l8.611 8.61v10.95zm7.454-44.468H86.713l-4.93-8.611h30.925l-4.93 8.611zm-21.065 2.083h21.065l4.93 8.612H81.782l4.931-8.612zm27.778 7.547l-4.908-8.588 4.908-8.588 4.907 8.588-4.907 8.588zM80 3.102l4.907 8.588L80 20.278l-4.907-8.588L80 3.102zm10.671 58.704l-8.588-4.908 8.588-4.907 8.588 4.907-8.588 4.908zm11.111-19.098l-8.61-8.61h14.606l4.93 8.61h-10.926zm12.709-1.064l-4.908-8.588 4.908-8.588 4.907 8.588-4.907 8.588zM.023 74.421c0-.555.232-.787.787-.787h16.945c.555 0 .787.232.787.787v2.5c0 .394-.162.556-.556.556H4.33v7.685h10.833c.556 0 .787.232.787.787v2.269c0 .555-.231.787-.787.787H4.306v11.203c0 .556-.232.787-.787.787H.787c-.556 0-.787-.231-.787-.787V74.421h.023zM18.24 91.782c0-5.902 4.029-9.56 9.56-9.56 5.533 0 9.561 3.658 9.561 9.56 0 6.32-4.375 9.56-9.56 9.56-5.185 0-9.56-3.217-9.56-9.56zm14.978.047c0-3.935-2.431-6.158-5.417-6.158-3.01 0-5.417 2.223-5.417 6.158 0 3.588 2.037 6.088 5.417 6.088 3.403 0 5.417-2.5 5.417-6.088zM40.648 83.403c0-.556.232-.787.787-.787h2.43c.556 0 .788.231.788.787v1.643c1.296-1.643 3.24-2.8 5.926-2.8 3.518 0 5.694 2.152 5.694 5.416 0 .556-.278.787-.787.787h-2.454c-.44 0-.578-.162-.625-.625-.162-1.32-.972-2.153-2.662-2.153-1.55 0-2.893 1.065-3.75 2.269-.856 1.204-1.365 2.685-1.365 5.023v7.222c0 .556-.232.787-.787.787h-2.431c-.556 0-.787-.231-.787-.787V83.403h.023zM58.912 83.403c0-.556.232-.787.787-.787h2.43c.556 0 .788.231.788.787v1.666c1.25-1.759 2.847-2.847 5.416-2.847 2.338 0 3.936.926 4.653 2.57 1.25-1.482 3.171-2.57 5.903-2.57 3.24 0 5.51 1.76 5.51 5.417v12.523c0 .556-.232.787-.788.787h-2.477c-.555 0-.787-.231-.787-.787v-11.99c0-1.644-.694-2.547-2.291-2.547-1.181 0-2.269.556-3.195 1.667-.972 1.18-1.412 2.268-1.412 4.213v8.634c0 .555-.231.787-.787.787h-2.407c-.556 0-.787-.232-.787-.787V88.125c0-1.644-.695-2.5-2.292-2.5-1.088 0-2.222.625-3.032 1.667-.81 1.064-1.25 1.828-1.25 3.865v8.982c0 .555-.232.787-.788.787h-2.43c-.556 0-.787-.232-.787-.787V83.403h.023zM90.625 74.352c1.481 0 2.662 1.18 2.662 2.662 0 1.481-1.18 2.662-2.662 2.662-1.481 0-2.662-1.18-2.662-2.662 0-1.505 1.18-2.662 2.662-2.662zm-1.99 9.05c0-.555.23-.786.786-.786h2.43c.556 0 .788.231.788.787v16.782c0 .556-.232.787-.787.787h-2.43c-.556 0-.788-.231-.788-.787V83.403zM110.81 99.352c-1.528 1.296-2.847 1.99-5.648 1.99-4.606 0-8.472-3.194-8.472-9.56 0-6.018 4.097-9.56 8.935-9.56 2.292 0 4.05.741 5.185 1.945V73.634c0-.555.232-.787.787-.787h2.408c.555 0 .787.232.787.787v26.528c0 .556-.232.787-.741.787h-1.921c-.556 0-.81-.185-1.019-.787l-.3-.81zm0-9.074c0-1.204-.231-1.991-1.065-2.894-.856-.972-2.152-1.713-3.75-1.713-2.963 0-5.185 2.338-5.185 6.158 0 3.518 1.99 6.088 5.162 6.088 1.76 0 3.125-.741 3.912-1.76.741-.926.926-1.759.926-3.032v-2.847zM133.45 99.167c-1.529 1.435-3.01 2.176-5.811 2.176-4.954 0-9.12-3.195-9.12-9.56 0-6.02 4.212-9.56 9.375-9.56 2.777 0 4.606.971 5.578 2.152v-.972c0-.556.232-.787.787-.787h2.43c.556 0 .788.231.788.787v16.782c0 .556-.232.787-.787.787h-1.921c-.51 0-.81-.185-.973-.787l-.347-1.018zm0-9.051c0-1.18-.279-1.945-1.135-2.847-.81-.81-2.153-1.598-3.982-1.598-3.24 0-5.694 2.292-5.694 6.158 0 3.75 2.338 6.088 5.625 6.088 2.037 0 3.472-.973 4.282-1.991.672-.903.903-1.667.903-2.917v-2.893zM141.76 73.657c0-.555.23-.787.786-.787h2.43c.556 0 .788.232.788.787V85.37c1.435-1.713 3.75-3.125 6.481-3.125 5.278 0 8.033 3.542 8.033 9.491 0 5.51-3.31 9.63-9.051 9.63-2.269 0-3.982-.579-5.463-1.551v.393c0 .556-.232.787-.787.787h-2.43c-.556 0-.788-.231-.788-.787v-26.55zm3.98 21.135c0 .926.464 1.412 1.02 1.828 1.18.857 2.569 1.297 3.934 1.297 3.519 0 5.417-2.686 5.417-6.158 0-4.05-2.037-6.088-4.676-6.088-2.546 0-4.097 1.713-4.907 3.079-.463.81-.787 1.528-.787 2.917v3.125zM163.634 73.657c0-.555.232-.787.787-.787h2.43c.556 0 .788.232.788.787v22.315c0 1.412.625 1.945 1.528 1.945.856 0 1.25-.394 1.643-.394.232 0 .394.185.394.51v2.337c0 .348-.162.51-.394.58-.625.23-1.76.393-2.685.393-2.153 0-4.444-1.25-4.444-4.445v-23.24h-.047zM190.417 97.06c.115.116.185.278.185.44 0 .162-.07.3-.232.463-2.546 2.546-4.42 3.403-8.009 3.403-4.884 0-9.514-3.403-9.514-9.56 0-5.81 4.213-9.56 9.375-9.56 6.25 0 9.12 4.837 9.12 9.282v.787c0 .555-.23.787-.786.787h-13.727c.509 2.963 2.615 4.838 5.74 4.838 2.57 0 3.982-.972 5.186-2.338.185-.232.347-.347.578-.347.162 0 .301.07.51.277l1.574 1.528zm-3.033-7.268c-.671-2.848-2.778-4.144-5.07-4.144-2.5 0-4.837 1.528-5.462 4.144h10.532z" fill="rgb(240, 77, 33)" fill-rule="nonzero"></path><circle stroke="#FFF" stroke-width=".787" cx="196.519" cy="82.167" r="3.463"></circle><path d="M196.282 81.852c.237 0 .394-.079.473-.158.078-.078.157-.236.157-.393 0-.157-.079-.315-.157-.394-.08-.078-.236-.078-.473-.078h-.472v1.023h.472m-.393.708v1.574h-1.023v-4.092h1.574c.55 0 .944.078 1.18.236.236.157.394.472.394.866 0 .236-.079.472-.158.63-.157.157-.314.314-.55.393.157 0 .236.078.393.236.157.157.236.315.315.55l.55 1.181h-1.101l-.472-1.023c-.079-.236-.236-.315-.315-.393-.079-.08-.236-.08-.394-.08h-.393" fill="rgb(240, 77, 33)" fill-rule="nonzero"></path></g></svg>